<svg width="61" height="67" viewBox="0 0 61 67" fill="none" xmlns="http://www.w3.org/2000/svg">
<path d="M60.5773 15.4495C60.3678 13.3794 60.0922 11.3404 59.334 9.38868C58.6156 7.5355 57.5581 5.77836 56.4881 4.10601C54.6649 1.25891 50.8438 -0.550613 48.2873 0.151498C45.6821 0.866079 43.6107 2.96119 41.9595 4.99519C37.9714 9.90372 35.2939 15.7326 32.2273 21.226C31.5139 22.5043 31.146 23.1578 30.5088 24.2826C30.4003 24.254 30.308 24.2278 30.2332 24.2053C26.7276 23.1503 23.0574 22.3946 19.4272 22.8373C15.3729 23.3311 11.4533 24.7378 8.2146 27.2644C4.54941 30.1252 2.15874 34.2506 0.998947 38.7164C0.236977 41.6508 -0.0361354 44.7099 0.00377142 47.7354C0.0536549 51.4766 0.410322 55.4025 1.57385 58.9729C2.37449 61.4284 3.63654 63.8839 5.7092 65.5014C6.86151 66.4005 8.37298 67.1301 9.87572 66.9804C10.0466 66.963 10.2087 66.9281 10.3646 66.8819C12.0407 66.9879 13.597 66.0277 14.8628 65.0325C16.5988 63.6682 18.0554 61.9622 19.4047 60.225C22.49 56.253 25.0877 51.9119 27.5233 47.5209C28.2989 46.1229 29.0522 44.7124 29.8004 43.2995C30.1247 43.4142 30.4128 43.5003 30.9964 43.6599C34.7402 44.6925 38.7271 44.8646 42.5569 44.2498C46.7222 43.5801 50.7291 41.8267 53.8443 38.9509C57.5706 35.5114 59.6495 30.7014 60.4114 25.7492C60.9352 22.3397 60.9265 18.8765 60.5798 15.4508H60.5773V15.4495ZM34.3087 20.5576C35.7316 17.9898 37.0672 15.3747 38.53 12.8294C40.2535 9.83015 42.1129 6.79349 44.5572 4.32051C45.8667 2.9961 47.5889 1.6268 49.5007 1.43101C49.1864 1.70537 48.8983 2.00093 48.6439 2.27404C47.4979 3.50616 46.5326 4.91662 45.6397 6.33955C43.476 9.79273 41.4969 13.3719 39.4504 16.8961C37.8217 19.7008 36.2067 22.5143 34.5992 25.3302C34.2189 25.2017 33.0541 24.9187 31.9953 24.658C32.8084 23.2363 33.4419 22.1202 34.3074 20.5576H34.3087ZM9.56769 65.5014C9.44298 65.5026 9.32076 65.4939 9.19605 65.4852C9.17111 65.4839 9.15365 65.4827 9.13994 65.4814C9.13619 65.4802 9.12622 65.4777 9.10751 65.4752C9.02645 65.4615 8.94539 65.4465 8.86558 65.4291C7.28427 65.0836 5.88753 63.8889 4.90732 62.4872C2.97683 59.7274 2.26225 56.2941 1.86443 53.0093C1.46286 49.6908 1.34439 46.3199 1.72226 42.9939C2.25726 38.275 3.94457 33.5822 7.27803 30.114C9.98297 27.2993 13.5434 25.5185 17.3358 24.6929C20.8451 23.9297 24.3369 24.4984 27.8101 25.2441C29.3465 25.5734 34.4271 26.9152 35.2789 27.1385C36.6981 27.4739 39.2708 27.7458 41.2562 27.9915C44.9276 28.4454 49.9434 27.5687 48.8634 27.3542C46.7309 26.9302 41.3672 26.5698 39.3207 26.3603C40.7486 23.8063 42.0369 21.5191 43.5533 18.8965C44.9313 16.5108 46.3256 14.1264 47.847 11.8267C48.3396 11.0822 48.8871 10.2791 49.4071 9.63809C49.6092 9.38868 49.8187 9.143 50.0457 8.91478C50.1354 8.82499 50.2277 8.74019 50.3225 8.65664C50.3275 8.65165 50.3312 8.64791 50.3362 8.64417C50.3799 8.61548 50.426 8.58805 50.4684 8.55812C50.4846 8.54565 50.4959 8.53692 50.5046 8.52943C50.5158 8.52943 50.5295 8.52943 50.547 8.52694C50.5881 8.52195 50.6318 8.51073 50.6717 8.50075H50.7116C50.8251 8.50325 50.9373 8.50075 51.0508 8.50948C51.0608 8.50948 51.0683 8.50948 51.0745 8.51073C51.0845 8.51322 51.0969 8.51572 51.1132 8.51821C51.1955 8.53442 51.2778 8.55188 51.3601 8.57308C52.041 8.74767 52.6695 9.15173 53.2295 9.71167C55.3545 11.8342 55.9045 15.1976 56.1738 18.0534C56.6552 23.1628 55.8895 28.6387 52.4974 32.688C49.8748 35.8182 46.1223 37.715 42.1491 38.4757C39.1 39.0594 35.663 39.0494 32.8059 37.9832C32.8994 37.821 32.993 37.6577 33.0853 37.4955C34.3448 35.2782 35.4535 33.2953 36.6557 31.1404C38.5388 31.401 40.473 31.603 42.3549 31.4185C43.1069 31.3449 45.5025 31.0344 46.1535 30.6216C46.9653 30.1078 40.5728 30.6216 32.2722 28.9131C31.9641 28.8532 31.6561 28.7909 31.3481 28.7285C30.8492 28.6275 30.3529 28.5153 29.8578 28.4005C29.8902 28.3444 23.4989 26.8866 20.9424 26.9714C16.9392 27.1048 13.0271 28.4866 9.99544 31.1354C6.24046 34.4177 4.39477 39.244 3.76499 44.0889C3.34098 47.3463 3.26865 50.8519 4.03311 54.0631C4.53444 56.1682 5.50343 58.3718 7.23314 59.7561C8.1061 60.4544 9.42552 61.1578 10.4993 60.4744C11.5743 59.7897 12.3487 58.4953 13.052 57.4726C15.9877 53.2101 18.4869 48.6308 21.0259 44.1288C23.7221 39.3487 26.3709 34.5437 29.0771 29.7686C29.9675 29.9706 30.8617 30.1589 31.7584 30.3335C30.7744 32.0682 29.7917 33.8029 28.8115 35.5389C25.3508 41.677 21.9026 47.8264 18.2786 53.8698C16.8843 56.1956 15.4664 58.5102 13.9524 60.7587C12.9897 62.1891 12.0606 63.5971 10.8472 64.8093C10.7487 64.9078 10.6464 65.0026 10.5429 65.0973C10.4993 65.1372 10.4544 65.1734 10.4095 65.2121C10.402 65.2183 10.3958 65.2245 10.3895 65.2295C10.3858 65.232 10.3833 65.2333 10.3783 65.237C10.3035 65.2881 10.2224 65.3343 10.1476 65.3867C10.064 65.3979 9.99045 65.4241 9.9256 65.4602C9.89068 65.469 9.85701 65.4764 9.83581 65.4827C9.77221 65.4864 9.61632 65.5001 9.56769 65.5014ZM24.1374 35.5164C22.5948 35.2358 21.2579 35.1211 19.5506 34.929C18.2674 34.7856 14.6209 34.7931 14.0273 35.3867C13.7567 35.6573 19.0655 36.2347 19.5668 36.322C20.4273 36.4717 22.1658 36.8047 23.2919 37.0254C22.8467 37.8235 22.4015 38.6217 21.9563 39.4198C20.5857 39.2128 19.6267 38.9708 18.0192 38.9422C17.049 38.9247 13.1817 39.3487 13.8627 39.441C15.4003 39.6493 19.1603 40.6345 21.1456 40.8739C19.0792 44.5703 16.9966 48.2579 14.8192 51.8882C13.7292 53.7039 12.6243 55.5197 11.3934 57.2457C10.9956 57.8031 10.6901 58.2234 10.2224 58.7285C10.0852 58.8756 9.94306 59.019 9.78967 59.1487C9.81212 59.125 9.69863 59.2061 9.65249 59.2435C9.64999 59.246 9.64501 59.2485 9.64002 59.2522H9.64501C9.70611 59.2173 9.68367 59.236 9.64625 59.2522C9.66122 59.2547 9.66371 59.2585 9.63004 59.2597C9.63253 59.2585 9.63503 59.2572 9.63752 59.256C9.63378 59.2572 9.63129 59.2585 9.62755 59.261C9.61133 59.2672 9.59637 59.2697 9.58764 59.266C9.5839 59.2647 9.5814 59.2635 9.57891 59.2622C9.55147 59.2635 9.52404 59.2635 9.49785 59.2597C9.4355 59.2497 9.4118 59.2472 9.43051 59.251C9.38561 59.2423 9.33947 59.2323 9.29582 59.2186C8.99777 59.13 8.99028 59.1313 8.66978 58.943C8.04998 58.5776 7.50251 58.0189 7.06229 57.3866C5.42361 55.0371 5.05448 52.0665 4.9996 49.2743C4.89734 44.0602 5.78901 38.4458 9.10502 34.2419C11.5543 31.1366 15.1247 29.2061 19.0169 28.6325C20.794 28.3706 22.6434 28.3881 24.4168 28.6674C25.4942 28.837 26.5455 29.1263 27.6006 29.4032C26.442 31.4372 25.2872 33.4724 24.1424 35.5139L24.1374 35.5164ZM21.1544 55.2104C19.7651 57.3093 18.2948 59.367 16.6237 61.2513C15.5924 62.4136 14.4613 63.5996 13.1356 64.4538C14.2742 63.0222 15.2868 61.4833 16.2783 59.9494C19.8063 54.4871 23.0125 48.8129 26.2238 43.1611C28.5945 38.9871 30.9453 34.8018 33.3072 30.6228C33.9146 30.7301 34.5244 30.8286 35.1342 30.9209C32.4468 35.7234 23.4802 51.7011 21.1569 55.2092H21.1544V55.2104ZM59.1569 23.8C58.6767 28.7111 56.9832 33.6134 53.4914 37.2025C50.6742 40.0982 46.9516 41.8778 43.0146 42.6535C39.393 43.3668 35.5557 43.2571 31.9991 42.3766C31.5027 42.2532 31.0101 42.1135 30.5225 41.9576C31.0188 41.061 31.5339 40.1743 32.0489 39.2876C32.1662 39.335 32.2834 39.3811 32.4031 39.4248C33.1277 39.6854 33.8772 39.8762 34.6354 40.0147C36.4399 40.3439 38.2881 40.4162 40.1151 40.2578C44.2667 39.8987 48.3396 38.4383 51.5546 35.7446C55.3957 32.5271 57.3486 27.782 57.7302 22.8597C57.9884 19.5125 57.7265 15.8448 56.6265 12.661C55.8745 10.4836 54.5489 8.23512 52.3203 7.32724C51.1344 6.84337 49.987 6.88827 49.048 7.79739C47.7124 9.08938 46.7085 10.8016 45.7233 12.3605C43.1917 16.3674 39.2509 23.396 37.7269 26.1383C37.389 26.0772 37.0498 26.0086 36.7118 25.9313C36.4923 25.8814 36.2753 25.8265 36.0596 25.7704C36.5397 24.9286 37.0198 24.0881 37.5024 23.2476C39.2072 20.2782 40.9357 17.3202 42.6579 14.3608C43.8476 12.3168 45.0398 10.2741 46.242 8.23762C47.0901 6.80097 47.9905 5.3768 49.0492 4.08606C49.6828 3.31411 50.8612 1.52454 51.9088 1.89243C52.2942 2.02712 53.1172 2.19547 54.3032 3.58099C56.6427 6.31461 58.3188 9.79523 58.8301 13.3831C59.3202 16.8238 59.4973 20.3381 59.1594 23.8013H59.1569V23.8Z" fill="#EEA044"/>
</svg>
