<svg width="43" height="43" viewBox="0 0 43 43" fill="none" xmlns="http://www.w3.org/2000/svg">
<mask id="mask0_1201_560" style="mask-type:luminance" maskUnits="userSpaceOnUse" x="9" y="4" width="25" height="34">
<path d="M33.2358 4.64722H9.29118V37.4048H33.2358V4.64722Z" fill="white"/>
</mask>
<g mask="url(#mask0_1201_560)">
<path d="M27.9142 6.30932C28.4825 7.67888 27.9142 9.64195 27.1003 10.027C26.2864 10.412 24.1793 9.4959 23.5864 8.12766C23.4387 7.83376 23.3505 7.51351 23.3271 7.18535C23.3036 6.85727 23.3454 6.5277 23.4499 6.21576C23.5543 5.90382 23.7195 5.61564 23.9358 5.36782C24.1522 5.11999 24.4154 4.91742 24.7104 4.77179C25.3397 4.56959 26.0226 4.6163 26.6186 4.90231C27.2146 5.1883 27.6783 5.69185 27.9142 6.30932Z" fill="#EEA044"/>
<path d="M32.7667 14.9334C32.4102 14.636 31.9986 15.2083 31.6534 15.6484C31.5346 15.7843 31.4042 15.9096 31.2637 16.0229L30.2507 16.8374C29.8391 17.1348 29.3378 17.4429 29.0703 17.0246C28.1688 15.6484 27.1338 12.0947 26.1652 11.4972C25.4741 11.0976 24.7218 10.815 23.9385 10.6607C23.3142 10.516 22.6592 10.5861 22.0797 10.8599L16.2376 13.5234C15.2916 14.0624 16.4268 18.6624 16.4268 18.6624C16.4488 18.9491 16.5736 19.2183 16.7781 19.4205C16.9826 19.6226 17.2531 19.7443 17.5401 19.7631C18.1967 19.7631 18.0048 18.7839 17.7519 17.9581C17.58 17.6074 17.4492 17.238 17.3622 16.8573C17.3622 16.8573 16.9393 15.0304 17.8853 14.5796C18.6315 14.2277 21.7265 12.9285 21.682 13.9303C21.682 13.9303 19.7117 19.4325 19.4554 20.5989C19.0657 22.25 18.0414 27.4993 18.0414 27.4993C17.9742 27.6439 17.8578 27.7599 17.7129 27.8265C17.568 27.893 17.4041 27.9057 17.2507 27.8624C15.7042 27.7797 14.1546 27.7797 12.6082 27.8624C12.3075 27.8624 11.8401 27.6533 11.4949 28.2036C10.5343 29.6031 9.06444 31.5064 9.3207 31.9027C9.57695 32.2991 12.1037 29.625 13.1951 29.702L18.2272 30.087C18.4624 30.1075 18.699 30.0666 18.9137 29.9683C19.1284 29.8699 19.3139 29.7176 19.4521 29.5261C20.1538 28.5137 20.6988 24.1009 21.7902 23.7504C22.6473 23.4755 25.7649 27.6898 25.4867 28.3171C24.7967 29.923 24.1945 31.5652 23.683 33.2365C23.3603 34.4142 23.0596 34.2708 23.1266 34.6671C23.1266 34.8875 25.7874 37.7481 26.1997 37.3744C26.612 37.0006 24.9191 34.2602 25.0864 33.9627L27.7804 28.8343C28.0099 28.5082 28.1246 28.1151 28.1065 27.7168C28.0884 27.3184 27.9384 26.9374 27.6801 26.6336L24.5599 22.5175C24.4114 22.3419 24.3051 22.1345 24.2491 21.9114C24.1932 21.6882 24.1892 21.4552 24.2373 21.2303L25.2504 16.6416C25.3506 16.2014 25.4953 15.2992 26.219 16.2014C27.0128 17.2287 27.9203 18.1627 28.9242 18.9857C29.0194 19.0507 29.132 19.0854 29.2472 19.0854C29.3624 19.0854 29.475 19.0507 29.5702 18.9857L32.2536 17.0605C32.867 16.6091 33.8137 15.7918 32.7667 14.9334Z" fill="#EEA044"/>
</g>
</svg>
