<svg width="43" height="43" viewBox="0 0 43 43" fill="none" xmlns="http://www.w3.org/2000/svg">
<mask id="mask0_1201_571" style="mask-type:luminance" maskUnits="userSpaceOnUse" x="15" y="4" width="13" height="34">
<path d="M27.0674 4.64697H15.2704V37.4052H27.0674V4.64697Z" fill="white"/>
</mask>
<g mask="url(#mask0_1201_571)">
<path d="M23.1947 9.237C24.2645 9.237 25.1318 8.20946 25.1318 6.94199C25.1318 5.67448 24.2645 4.64697 23.1947 4.64697C22.1248 4.64697 21.2575 5.67448 21.2575 6.94199C21.2575 8.20946 22.1248 9.237 23.1947 9.237Z" fill="#EEA044"/>
<path d="M27.0502 16.4272L26.7846 13.2519C26.7441 12.7057 26.4964 12.1956 26.0922 11.8259C23.675 9.71208 20.2236 10.5041 19.1202 10.933C18.1667 11.389 17.2537 11.9251 16.391 12.5355C16.2838 12.6074 16.2033 12.7127 16.162 12.835C16.0784 13.099 16.0262 13.372 16.0066 13.6482L15.6083 17.5186V17.5597C15.5747 17.7949 15.5136 18.0253 15.4264 18.2462C15.3023 18.6689 15.2516 19.1096 15.2764 19.5494C15.2798 19.6575 15.3086 19.7633 15.3607 19.8581C15.4127 19.9529 15.4864 20.0341 15.5758 20.0951C15.6934 20.1817 15.8276 20.243 15.9701 20.2753C16.1126 20.3077 16.2602 20.3102 16.4036 20.283C16.512 20.2593 16.6114 20.2054 16.6904 20.1274C16.7693 20.0495 16.8246 19.9509 16.8497 19.8428L17.1259 18.7746C17.156 18.6235 17.156 18.4678 17.1259 18.3166C17.0831 17.9798 17.099 17.6381 17.1731 17.3068L17.8243 14.3718C17.8464 14.2645 17.8929 14.1637 17.9601 14.0771C18.0273 13.9906 18.1135 13.9207 18.212 13.8726L18.6641 13.6435C18.7531 13.6002 18.8555 13.5932 18.9496 13.6238C19.0439 13.6546 19.1223 13.7207 19.1687 13.8082C19.2054 13.8764 19.2198 13.9544 19.2098 14.0313L18.858 17.0187C18.8178 17.3834 18.7166 17.7386 18.5586 18.0696C18.2729 18.6225 18.0749 19.2165 17.9717 19.8302C17.4672 22.6105 17.1478 26.8102 17.1478 26.8102C17.1507 26.865 17.1507 26.92 17.1478 26.9748C17.0947 27.2158 17.0184 27.9374 17.0071 28.1485C16.9958 28.3597 17.0071 29.1291 17.0071 29.5692C17.0107 29.6792 17.0451 29.7859 17.1063 29.8772C17.1675 29.9685 17.2533 30.0408 17.3536 30.0857C17.5647 30.1871 17.7947 30.2432 18.0288 30.2504C18.1189 30.2429 18.2052 30.2111 18.2787 30.1584C18.3521 30.1056 18.4099 30.0339 18.4457 29.951L18.9682 28.7122C19.0422 28.5453 19.0763 28.3634 19.0678 28.1811C19.0443 27.9409 19.0443 27.699 19.0678 27.4588V27.3652L19.9832 24.4275C19.9832 24.3923 20.0536 24.4275 20.0496 24.4275L19.4979 28.5362C19.4889 28.6293 19.4732 28.7217 19.4508 28.8124C19.4152 29.0029 19.3561 29.1882 19.2749 29.3641C18.9429 30.1329 18.2127 32.1696 17.9896 32.7625C17.952 32.8728 17.8898 32.9732 17.8077 33.0559C16.9155 33.9853 17.5847 34.6173 17.7373 34.9991C17.7585 35.0502 17.7743 35.1034 17.7845 35.1577L18.1164 36.7603C18.2459 37.1586 18.2492 37.4468 18.9204 37.4003H19.8478C20.2647 37.2675 19.9142 36.9953 19.7011 36.69C19.6665 36.6349 19.6389 36.5758 19.6188 36.514L18.9728 34.7534C18.8906 34.3923 18.8906 34.0173 18.9728 33.656C19.0189 33.4699 19.1007 33.2945 19.2138 33.1396L21.0454 30.4728C21.1098 30.3795 21.163 30.279 21.2041 30.1734C21.3336 29.7684 21.5619 28.9233 21.6383 28.5708L23.3989 23.1177L23.44 22.959C23.5635 22.325 24.2739 18.4334 24.3907 17.8054C24.392 17.7977 24.3949 17.7904 24.3993 17.7841C24.4038 17.7776 24.4096 17.7723 24.4163 17.7683C24.423 17.7644 24.4305 17.762 24.4382 17.7613C24.4459 17.7606 24.4538 17.7616 24.4611 17.7642L25.2577 18.3099C25.5889 18.5151 25.9812 18.5982 26.3671 18.5449C26.4544 18.5229 26.5299 18.4683 26.5782 18.3922C26.9558 17.8106 27.1225 17.1169 27.0502 16.4272Z" fill="#EEA044"/>
</g>
</svg>
