<svg width="43" height="43" viewBox="0 0 43 43" fill="none" xmlns="http://www.w3.org/2000/svg">
<mask id="mask0_1201_582" style="mask-type:luminance" maskUnits="userSpaceOnUse" x="1" y="9" width="39" height="25">
<path d="M39.9129 9.95801H1.99237V33.1378H39.9129V9.95801Z" fill="white"/>
</mask>
<g mask="url(#mask0_1201_582)">
<path d="M26.0901 15.9632C27.9456 16.3927 30.4677 14.976 30.7286 13.7147C30.9895 12.4533 29.3119 10.4902 27.4524 10.0594C26.6269 9.81639 25.739 9.90853 24.981 10.3158C24.223 10.723 23.6559 11.4125 23.4027 12.2349C23.0104 13.866 24.2306 15.5357 26.0901 15.9632Z" fill="#EEA044"/>
<path d="M7.30329 15.6924C9.32797 14.6369 11.5051 13.9044 13.7561 13.5215C14.421 13.4356 15.0919 13.4067 15.7617 13.4352C16.3399 13.5049 16.9049 13.6588 17.4387 13.892C18.4996 14.4084 19.6123 14.8112 20.758 15.0936C20.881 15.1113 21.0065 15.098 21.123 15.0549C21.2395 15.0118 21.3434 14.9402 21.4252 14.8466C24.8389 10.9351 16.2888 11.3779 15.2426 11.3945C12.2399 11.5551 9.28502 12.2159 6.49998 13.3496C5.95958 13.7293 6.31144 16.1876 7.30329 15.6924Z" fill="#EEA044"/>
<path d="M38.8342 31.7296C38.5826 31.5835 37.1022 30.9847 37.1022 30.9847C36.6619 30.8214 36.2565 30.5763 35.9072 30.2624L31.9133 26.2453C31.497 25.8568 30.9941 25.5732 30.4462 25.4181C30.0346 25.2767 26.9044 24.2165 25.7207 23.8322C25.7137 23.8306 25.7071 23.8276 25.7014 23.8233C25.6956 23.819 25.6909 23.8135 25.6874 23.8072C25.684 23.801 25.6819 23.794 25.6813 23.7869C25.6808 23.7797 25.6817 23.7725 25.6842 23.7658C25.6885 23.7524 25.6977 23.7411 25.7101 23.7343C25.7224 23.7275 25.7369 23.7257 25.7506 23.7293C27.0463 23.89 28.3538 23.9345 29.6575 23.862C31.7734 23.6832 33.8635 23.2741 35.8906 22.6418C37.2183 22.0842 38.6005 21.5039 38.8116 21.0698C39.1084 20.4577 38.4047 18.2364 37.4089 18.721C37.2808 18.7874 36.4947 19.3185 36.038 19.6351C35.7747 19.8199 35.5 19.9877 35.2154 20.1377L34.5941 20.4696C33.5799 20.9862 32.4679 21.2821 31.3311 21.338L29.9874 21.3838C29.0303 21.4301 28.0742 21.2745 27.1812 20.927H27.1308C26.81 20.8024 26.5479 20.5618 26.3963 20.2529C26.2448 19.9439 26.215 19.5893 26.3129 19.2594C26.5043 18.6285 26.4382 17.9476 26.1291 17.3653C25.82 16.783 25.2929 16.3467 24.6632 16.1518L22.7027 15.5543C22.4025 15.4683 22.0805 15.5044 21.8068 15.6547C21.5332 15.8051 21.33 16.0575 21.2415 16.3569C21.2415 16.3569 20.9992 17.3899 20.7848 18.5869C20.3825 20.6708 20.6706 21.1182 18.989 22.4161C17.636 23.4259 13.0938 27.3241 12.3217 27.1867C12.3217 27.1867 8.41881 26.4604 6.98418 26.2726C6.69493 26.232 6.40066 26.2443 6.11582 26.3091C5.68629 26.4093 5.01445 26.5421 4.88632 26.5647C4.13681 26.6696 -0.752629 27.5246 4.13681 28.95C4.42334 29.0331 4.72495 29.0503 5.0191 29.0004L6.16162 28.8013C6.60862 28.7234 7.06643 28.7327 7.50997 28.8285L14.0677 30.2359C14.615 30.2718 15.1569 30.1097 15.5946 29.7791C15.6677 29.7201 21.5031 26.2832 21.9678 26.009C22.5892 25.6386 23.7543 27.2657 27.3923 27.9143C28.1644 28.0517 30.5092 28.4036 31.1167 28.8922C31.1167 28.8922 34.1785 31.4282 35.3349 32.2919C35.5726 32.4698 35.7419 32.7852 36.0247 32.8675C36.4469 32.9643 36.8763 33.0269 37.3086 33.0547C38.0595 33.1875 41.6889 33.3654 38.8342 31.7296Z" fill="#EEA044"/>
</g>
</svg>
