<svg width="512" height="517" viewBox="0 0 512 517" fill="none" xmlns="http://www.w3.org/2000/svg">
<path d="M512 268.66V278.136C510.781 281.235 509.333 284.283 508.342 287.459C501.94 307.908 495.742 328.434 489.264 348.858C486.47 357.698 483.015 366.386 475.293 372.228C457.206 385.895 438.89 399.232 420.803 412.873C413.462 418.411 405.638 423.034 400.76 431.773C391.031 449.174 377.796 463.984 362.326 476.609C348.888 487.583 334.179 496.627 318.023 503.079C304.763 508.388 291.147 512.554 276.87 514.155C272.018 514.688 267.192 515.552 262.34 516.263H242.322C241.078 515.907 239.884 515.399 238.613 515.247C231.958 514.409 225.201 514.155 218.647 512.783C194.971 507.855 173.15 498.405 153.361 484.459C133.217 470.284 117.035 452.425 104.511 431.214C101.946 426.845 100.294 421.281 96.5855 418.335C80.3022 405.481 63.6125 393.11 46.6941 381.094C34.1704 372.203 25.1016 361.534 20.9355 346.292C15.4993 326.452 8.71669 306.968 2.56917 287.332C0.282905 280.016 -1.13966 272.623 1.19741 265.028C5.21108 251.996 12.7049 242.038 26.6512 239.066C42.9853 235.56 59.4972 232.791 75.9075 229.692C91.1493 226.822 106.467 224.205 121.633 220.928C127.552 219.633 133.293 217.169 138.78 214.552C141.803 213.104 144.089 210.132 146.807 207.973C173.379 186.711 203.735 174.517 237.546 172.028C256.065 170.656 274.711 171.418 293.027 175.965C320.233 182.722 344.518 194.865 365.654 213.358C368.041 215.441 371.064 217.397 374.087 218.007C391.793 221.589 409.601 224.713 427.357 228.067C444.758 231.369 462.109 235.078 479.56 238.05C491.881 240.158 501.128 246.001 506.742 257.255C508.621 261.014 510.247 264.875 512 268.711V268.66ZM348.735 317.282C350.005 297.848 334.637 286.036 318.15 285.452C298.463 284.741 286.015 302.573 285.152 315.122C283.831 334.276 301.867 349.899 317.49 349.823C334.103 349.747 350.005 335.038 348.735 317.282ZM180.161 349.874C188.341 350.407 201.424 343.548 206.58 335.216C217.529 317.485 209.451 292.463 190.17 287.23C176.529 283.521 165.224 286.087 155.597 295.994C145.664 306.206 146.451 318.73 150.922 330.517C155.774 343.294 166.825 348.858 180.187 349.874H180.161Z" fill="#EEA044"/>
<path d="M421.21 92.6433C409.449 85.2002 397.865 77.5032 385.9 70.3903C380.439 67.1642 374.291 65.1065 368.474 62.4646C362.961 59.9497 357.652 56.7997 351.911 54.9453C343.68 52.278 335.247 50.068 326.737 48.5184C311.038 45.6987 295.313 42.9043 279.462 41.2277C267.167 39.9322 254.643 39.4241 242.323 40.1608C211.585 42.0152 181.762 48.4422 153.133 60.2037C123.869 72.2193 97.3988 88.528 73.9519 109.765C69.6842 113.626 65.4419 117.538 61.2758 121.526C53.1976 129.274 41.7409 129.401 33.9168 121.755C25.7879 113.804 25.0512 101.255 32.6467 93.3292C51.3686 73.7435 72.7579 57.5618 95.9254 43.6156C114.622 32.3621 134.335 23.3441 154.936 16.4091C173.684 10.1091 192.838 5.10474 212.601 3.09791C222.229 2.10719 231.806 0.354387 241.434 0.100357C254.211 -0.204478 267.065 0.201969 279.843 1.09107C292.798 1.98018 305.881 2.92009 318.582 5.40958C341.826 9.98211 364.485 16.8409 386.23 26.494C409.652 36.8838 431.803 49.4837 451.846 65.4622C462.693 74.1246 473.185 83.3712 483.117 93.0752C489.163 98.994 490.586 106.844 486.979 115.049C483.676 122.593 477.529 127.115 469.755 127.064C464.903 127.064 459.289 124.6 455.377 121.526C446.74 114.718 439.018 106.767 430.762 99.4259C428.221 97.165 425.224 95.4376 422.43 93.4562C422.023 93.1768 421.591 92.8973 421.185 92.5925L421.21 92.6433Z" fill="#EEA044"/>
<path d="M255.734 78.9255C290.511 79.8908 321.909 85.073 351.732 98.308C373.706 108.063 394.435 119.723 412.42 135.854C417.602 140.502 423.089 144.948 427.611 150.181C435.028 158.818 434.47 169.03 426.188 177.895C419.507 185.034 406.552 184.729 399.566 178.149C388.922 168.115 377.821 158.157 365.501 150.409C344.441 137.175 321.579 127.267 296.76 123.381C282.636 121.171 268.258 119.113 254.032 119.342C229.874 119.723 206.326 124.397 183.742 133.643C158.72 143.881 136.798 158.564 117.364 177.21C109.007 185.212 97.3724 185.542 89.6499 177.362C81.3939 168.623 80.3778 157.649 89.9547 147.945C105.73 131.942 123.715 118.757 143.428 107.936C162.937 97.2411 183.666 89.5948 205.233 84.7174C217.757 81.8723 230.865 81.5166 243.693 80.0941C248.52 79.5606 253.346 79.1796 255.785 78.9509L255.734 78.9255Z" fill="#EEA044"/>
</svg>
