<svg width="512" height="512" viewBox="0 0 512 512" fill="none" xmlns="http://www.w3.org/2000/svg">
<path d="M512 266.442V275.839C510.781 278.913 509.333 281.936 508.342 285.085C501.94 305.366 495.742 325.722 489.264 345.977C486.47 354.744 483.015 363.36 475.293 369.155C457.206 382.709 438.89 395.935 420.803 409.464C413.462 414.956 405.638 419.541 400.76 428.208C391.031 445.465 377.796 460.153 362.326 472.674C348.888 483.557 334.179 492.526 318.023 498.925C304.763 504.19 291.147 508.322 276.87 509.909C272.018 510.438 267.192 511.295 262.34 512H242.322C241.078 511.647 239.884 511.144 238.613 510.992C231.958 510.161 225.201 509.909 218.647 508.549C194.971 503.661 173.15 494.289 153.361 480.458C133.217 466.4 117.035 448.69 104.511 427.653C101.946 423.32 100.294 417.803 96.5855 414.88C80.3022 402.133 63.6125 389.864 46.6941 377.947C34.1704 369.13 25.1016 358.548 20.9355 343.433C15.4993 323.757 8.71669 304.433 2.56917 284.959C0.282905 277.704 -1.13966 270.372 1.19741 262.84C5.21108 249.915 12.7049 240.04 26.6512 237.092C42.9853 233.615 59.4972 230.869 75.9075 227.796C91.1493 224.949 106.467 222.354 121.633 219.104C127.552 217.819 133.293 215.376 138.78 212.781C141.803 211.345 144.089 208.397 146.807 206.256C173.379 185.169 203.735 173.076 237.546 170.607C256.065 169.247 274.711 170.003 293.027 174.512C320.233 181.214 344.518 193.256 365.654 211.597C368.041 213.662 371.064 215.602 374.087 216.207C391.793 219.759 409.601 222.858 427.357 226.183C444.758 229.459 462.109 233.137 479.56 236.084C491.881 238.175 501.128 243.97 506.742 255.13C508.621 258.859 510.247 262.688 512 266.493V266.442ZM348.735 314.662C350.005 295.389 334.637 283.674 318.15 283.095C298.463 282.389 286.015 300.075 285.152 312.52C283.831 331.516 301.867 347.01 317.49 346.934C334.103 346.859 350.005 332.272 348.735 314.662ZM180.161 346.985C188.341 347.514 201.424 340.712 206.58 332.448C217.529 314.863 209.451 290.048 190.17 284.858C176.529 281.18 165.224 283.725 155.597 293.55C145.664 303.678 146.451 316.098 150.922 327.788C155.774 340.46 166.825 345.977 180.187 346.985H180.161Z" fill="black"/>
<path d="M421.21 91.8783C409.449 84.4967 397.865 76.8632 385.9 69.8091C380.439 66.6095 374.291 64.5689 368.474 61.9488C362.961 59.4547 357.652 56.3307 351.911 54.4916C343.68 51.8463 335.247 49.6545 326.737 48.1177C311.038 45.3213 295.313 42.55 279.462 40.8873C267.167 39.6024 254.643 39.0986 242.323 39.8292C211.585 41.6683 181.762 48.0422 153.133 59.7066C123.869 71.623 97.3988 87.797 73.9519 108.859C69.6842 112.688 65.4419 116.568 61.2758 120.523C53.1976 128.207 41.7409 128.333 33.9168 120.75C25.7879 112.864 25.0512 100.419 32.6467 92.5585C51.3686 73.1346 72.7579 57.0865 95.9254 43.2555C114.622 32.0949 134.335 23.1513 154.936 16.2736C173.684 10.0256 192.838 5.06259 212.601 3.07232C222.229 2.08979 231.806 0.351461 241.434 0.0995286C254.211 -0.20279 267.065 0.200302 279.843 1.08206C292.798 1.96382 305.881 2.89597 318.582 5.36491C341.826 9.89968 364.485 16.7018 386.23 26.2753C409.652 36.5793 431.803 49.0751 451.846 64.9216C462.693 73.5125 473.185 82.6828 483.117 92.3066C489.163 98.1766 490.586 105.961 486.979 114.099C483.676 121.581 477.529 126.065 469.755 126.015C464.903 126.015 459.289 123.571 455.377 120.523C446.74 113.771 439.018 105.886 430.762 98.6049C428.221 96.3627 425.224 94.6496 422.43 92.6845C422.023 92.4074 421.591 92.1302 421.185 91.8279L421.21 91.8783Z" fill="black"/>
<path d="M255.734 78.2737C290.511 79.231 321.909 84.3704 351.732 97.4961C373.706 107.17 394.435 118.734 412.42 134.732C417.602 139.342 423.089 143.751 427.611 148.941C435.028 157.506 434.47 167.634 426.188 176.426C419.507 183.506 406.552 183.203 399.566 176.678C388.922 166.727 377.821 156.851 365.501 149.167C344.441 136.042 321.579 126.216 296.76 122.362C282.636 120.17 268.258 118.129 254.032 118.356C229.874 118.734 206.326 123.369 183.742 132.54C158.72 142.693 136.798 157.254 117.364 175.746C109.007 183.682 97.3724 184.009 89.6499 175.897C81.3939 167.231 80.3778 156.347 89.9547 146.724C105.73 130.852 123.715 117.777 143.428 107.044C162.937 96.438 183.666 88.8548 205.233 84.0177C217.757 81.1961 230.865 80.8434 243.693 79.4326C248.52 78.9035 253.346 78.5256 255.785 78.2989L255.734 78.2737Z" fill="black"/>
</svg>
